<svg width="46" height="46" viewBox="0 0 46 46" fill="none" xmlns="http://www.w3.org/2000/svg">
<path d="M41.2812 0.8125H4.71875C3.54688 0.8125 2.55078 1.22266 1.73047 2.04297C0.910156 2.86328 0.5 3.85938 0.5 5.03125V41.5938C0.5 42.7656 0.910156 43.7617 1.73047 44.582C2.55078 45.4023 3.54688 45.8125 4.71875 45.8125H41.2812C42.4531 45.8125 43.4492 45.4023 44.2695 44.582C45.0898 43.7617 45.5 42.7656 45.5 41.5938V5.03125C45.5 3.85938 45.0898 2.86328 44.2695 2.04297C43.4492 1.22266 42.4531 0.8125 41.2812 0.8125ZM36.9307 32.3213L32.8438 32.3652C32.8438 32.3652 32.6387 32.3652 32.2285 32.3652C31.8477 32.3652 31.3643 32.1602 30.7783 31.75C30.0166 31.2227 29.2842 30.4756 28.5811 29.5088C27.8779 28.5127 27.2334 28.1172 26.6475 28.3223C26.0908 28.498 25.7686 29.0107 25.6807 29.8604C25.5928 30.71 25.5488 31.1348 25.5488 31.1348C25.5488 31.1348 25.5342 31.2373 25.5049 31.4424C25.5049 31.6475 25.4316 31.8086 25.2852 31.9258C25.168 32.1016 24.9922 32.2188 24.7578 32.2773C24.5527 32.3066 24.4502 32.3213 24.4502 32.3213H22.6045C22.6045 32.3213 21.7842 32.2041 20.1436 31.9697C18.5029 31.7354 16.7891 30.6953 15.002 28.8496C14.0059 27.8242 13.0684 26.623 12.1895 25.2461C11.3105 23.8398 10.5342 22.5068 9.86035 21.2471C9.18652 19.9873 8.64453 18.918 8.23438 18.0391C7.82422 17.1602 7.61914 16.7207 7.61914 16.7207C7.61914 16.7207 7.58984 16.6182 7.53125 16.4131C7.50195 16.208 7.5459 16.0469 7.66309 15.9297C7.78027 15.7832 7.95605 15.6953 8.19043 15.666C8.4248 15.6367 8.54199 15.6221 8.54199 15.6221L12.9805 15.5781C12.9805 15.5781 13.0537 15.6074 13.2002 15.666C13.376 15.6953 13.5371 15.7686 13.6836 15.8857C13.8008 15.9736 13.8887 16.0908 13.9473 16.2373C14.0059 16.3545 14.0352 16.4131 14.0352 16.4131C14.0352 16.4131 14.1963 16.7793 14.5186 17.5117C14.8408 18.2441 15.2363 19.0205 15.7051 19.8408C16.6133 21.4229 17.3164 22.4482 17.8145 22.917C18.3125 23.3857 18.7227 23.5322 19.0449 23.3564C19.4844 23.1221 19.6895 22.3164 19.6602 20.9395C19.6602 19.5625 19.6602 18.874 19.6602 18.874C19.6602 18.874 19.6455 18.6104 19.6162 18.083C19.5869 17.5264 19.4551 17.0869 19.2207 16.7646C19.0156 16.5303 18.7666 16.3691 18.4736 16.2812C18.21 16.1641 18.0049 16.1055 17.8584 16.1055C17.7119 16.0762 17.7119 15.959 17.8584 15.7539C18.0342 15.5195 18.2539 15.3438 18.5176 15.2266C18.9277 15.0215 19.4551 14.9043 20.0996 14.875C20.7734 14.8457 21.5352 14.8311 22.3848 14.8311C23 14.8311 23.4395 14.8604 23.7031 14.9189C23.9961 14.9482 24.2744 14.9922 24.5381 15.0508C25.2998 15.2266 25.6514 15.71 25.5928 16.501C25.5635 17.292 25.5488 18.5371 25.5488 20.2363C25.5488 20.7637 25.5488 21.3496 25.5488 21.9941C25.5488 22.6387 25.7393 23.0928 26.1201 23.3564C26.2959 23.4443 26.6182 23.3271 27.0869 23.0049C27.5557 22.6533 28.3027 21.6133 29.3281 19.8848C29.8262 19.0352 30.2363 18.2148 30.5586 17.4238C30.8809 16.6328 31.042 16.2373 31.042 16.2373C31.042 16.2373 31.0713 16.1787 31.1299 16.0615C31.2178 15.9443 31.335 15.8418 31.4814 15.7539C31.5986 15.666 31.7158 15.6367 31.833 15.666C31.9795 15.666 32.0527 15.666 32.0527 15.666L36.7109 15.6221C36.7109 15.6221 36.9453 15.6221 37.4141 15.6221C37.8828 15.6221 38.1758 15.7832 38.293 16.1055C38.4102 16.4277 38.2783 16.9844 37.8975 17.7754C37.5166 18.5371 36.8574 19.5479 35.9199 20.8076C34.3672 22.8877 33.5029 24.1328 33.3271 24.543C33.1807 24.9531 33.752 25.7588 35.041 26.96C36.2715 28.1025 37.0771 28.9668 37.458 29.5527C37.8389 30.1094 38.0439 30.417 38.0732 30.4756C38.5713 31.3252 38.498 31.8525 37.8535 32.0576C37.2383 32.2334 36.9307 32.3213 36.9307 32.3213Z" fill="currentColor"/>
</svg>
