<?xml version="1.0" standalone="no"?>
<!DOCTYPE svg PUBLIC "-//W3C//DTD SVG 20010904//EN"
 "http://www.w3.org/TR/2001/REC-SVG-20010904/DTD/svg10.dtd">
<svg version="1.0" xmlns="http://www.w3.org/2000/svg"
 width="1280.000000pt" height="1280.000000pt" viewBox="0 0 1280.000000 1280.000000"
 preserveAspectRatio="xMidYMid meet">
<metadata>
Created by potrace 1.14, written by Peter Selinger 2001-2017
</metadata>
<g transform="translate(0.000000,1280.000000) scale(0.100000,-0.100000)"
fill="#000000" stroke="none">
<path d="M4250 10660 c0 -4 -16 -5 -36 -3 -21 1 -41 0 -46 -3 -4 -3 -43 -7
-85 -10 -43 -2 -84 -6 -93 -9 -8 -2 -30 -7 -48 -10 -66 -11 -178 -36 -242 -54
-25 -7 -52 -14 -60 -16 -8 -2 -28 -9 -45 -15 -16 -6 -39 -14 -50 -16 -22 -4
-36 -9 -195 -75 -98 -41 -199 -90 -294 -143 -79 -45 -121 -70 -126 -77 -3 -3
-16 -12 -29 -19 -14 -7 -30 -17 -35 -21 -6 -5 -51 -39 -101 -75 -144 -107
-360 -307 -432 -401 -12 -15 -30 -37 -40 -48 -11 -11 -46 -56 -78 -100 -33
-44 -63 -81 -67 -83 -5 -2 -8 -8 -8 -13 0 -6 -18 -37 -40 -69 -22 -32 -40 -64
-40 -69 0 -6 -3 -11 -7 -11 -5 0 -13 -10 -19 -23 -6 -12 -41 -81 -78 -153 -36
-73 -66 -137 -66 -143 0 -6 -4 -19 -10 -29 -33 -60 -95 -245 -129 -383 -21
-83 -25 -102 -36 -159 -3 -14 -7 -36 -10 -49 -2 -14 -7 -45 -10 -70 -3 -25 -7
-55 -9 -66 -26 -139 -27 -582 -1 -775 4 -31 20 -134 31 -200 2 -14 6 -35 8
-46 2 -12 7 -37 10 -55 3 -19 17 -79 31 -134 14 -55 27 -109 30 -119 25 -105
127 -399 182 -526 8 -19 19 -44 24 -55 49 -115 151 -329 160 -335 3 -3 9 -14
13 -26 3 -11 35 -71 71 -133 36 -63 65 -117 65 -122 0 -5 3 -9 8 -9 4 0 18
-21 32 -47 14 -27 28 -52 33 -58 4 -5 39 -59 79 -120 39 -60 75 -113 80 -116
5 -3 9 -10 9 -15 0 -5 9 -19 19 -32 11 -12 20 -27 20 -32 0 -6 4 -10 8 -10 5
0 14 -10 19 -22 6 -13 18 -32 27 -43 9 -11 55 -72 103 -135 77 -103 198 -257
213 -270 3 -3 39 -45 80 -95 41 -49 79 -95 85 -101 5 -6 48 -53 95 -104 185
-204 349 -371 565 -575 168 -158 189 -178 255 -235 29 -25 64 -56 79 -70 16
-14 52 -45 81 -70 29 -25 58 -49 64 -55 13 -12 183 -154 206 -172 134 -106
196 -157 202 -166 4 -7 8 -9 8 -5 0 7 21 -8 54 -37 6 -6 29 -24 51 -40 22 -17
42 -32 45 -35 3 -3 41 -32 85 -65 44 -33 82 -63 83 -67 2 -5 10 -8 18 -8 8 0
14 -3 14 -8 0 -4 18 -18 40 -32 22 -14 40 -28 40 -32 0 -5 7 -8 15 -8 8 0 15
-3 15 -7 0 -5 28 -27 63 -51 34 -23 100 -70 147 -103 47 -33 132 -92 190 -131
58 -39 107 -74 110 -77 3 -3 17 -12 33 -20 15 -8 27 -18 27 -23 0 -4 4 -8 10
-8 5 0 63 -35 127 -78 65 -44 143 -95 173 -114 175 -112 201 -128 209 -128 5
0 11 -3 13 -7 4 -10 107 -73 119 -73 5 0 9 -4 9 -8 0 -5 15 -16 33 -25 17 -10
46 -26 62 -37 61 -40 89 -52 124 -55 40 -4 73 14 308 163 46 28 85 52 88 52 8
0 130 84 137 94 4 6 8 8 8 4 0 -7 97 54 225 141 90 61 409 277 430 291 118 80
141 96 145 101 3 3 43 33 91 67 47 33 91 67 98 76 8 9 18 16 23 16 6 0 22 10
37 23 15 12 40 31 55 42 70 50 171 130 174 137 2 5 8 8 13 8 6 0 21 11 35 25
14 14 28 25 33 25 4 0 18 10 30 21 13 12 57 49 99 82 43 33 93 74 113 91 19
17 51 43 70 58 19 14 44 35 57 46 13 11 41 35 62 52 22 18 50 42 63 53 13 12
52 47 86 77 35 30 76 66 91 80 15 14 58 53 96 87 38 34 107 98 154 142 46 45
85 81 85 81 7 0 409 414 473 488 26 29 61 68 77 86 17 18 50 57 75 86 25 29
50 58 55 64 6 6 34 40 63 76 28 36 63 77 77 92 14 15 25 31 25 37 0 5 6 14 13
18 11 7 91 109 127 163 8 12 27 36 42 54 15 17 30 39 34 49 3 9 10 17 15 17 5
0 9 6 9 14 0 8 3 16 8 18 9 4 162 230 192 286 13 23 28 42 32 42 5 0 7 4 3 9
-3 5 -1 12 4 15 10 7 131 210 131 221 0 4 8 19 18 33 42 60 189 366 251 522
23 58 46 114 51 125 5 11 26 70 46 130 20 61 38 117 41 125 8 22 11 30 28 100
2 8 4 17 5 20 1 3 2 8 1 13 0 4 3 7 8 7 5 0 8 6 8 13 -1 6 9 55 21 107 12 52
24 106 27 120 3 14 10 49 16 77 5 29 8 57 5 62 -4 5 -2 11 3 13 9 3 24 109 35
248 1 14 5 31 9 38 5 7 3 12 -3 12 -6 0 -8 5 -3 12 8 14 12 438 3 438 -3 0 -5
21 -6 48 -1 76 -25 250 -49 362 -4 14 -8 36 -11 50 -3 14 -9 39 -14 55 -23 79
-43 150 -42 152 1 2 -6 22 -14 45 -9 24 -17 48 -18 53 -2 6 -9 24 -15 40 -7
17 -19 46 -26 65 -30 81 -135 299 -174 360 -34 53 -41 66 -48 80 -3 8 -17 28
-30 43 -13 16 -23 33 -23 38 0 5 -7 17 -15 27 -9 9 -41 51 -72 92 -64 85 -178
216 -239 275 -126 121 -237 218 -280 245 -13 8 -24 18 -24 22 0 5 -6 8 -14 8
-8 0 -16 3 -18 8 -5 11 -125 92 -137 92 -5 0 -14 6 -18 13 -4 6 -24 20 -43 31
-19 10 -50 27 -68 38 -126 72 -409 198 -477 213 -5 1 -35 9 -65 18 -30 9 -57
17 -60 16 -3 0 -18 5 -34 11 -39 15 -233 57 -301 65 -16 2 -46 6 -65 9 -19 3
-69 8 -110 11 -41 4 -78 8 -81 11 -4 2 -11 0 -14 -6 -4 -7 -12 -7 -18 -2 -10
7 -272 9 -272 2 0 -1 -27 -3 -60 -5 -33 -2 -60 -4 -60 -5 0 -1 -18 -3 -40 -5
-22 -3 -53 -6 -70 -9 -103 -14 -131 -19 -136 -22 -3 -2 -21 -6 -40 -9 -19 -3
-46 -8 -61 -11 -15 -3 -29 -4 -31 -2 -2 2 -11 -3 -20 -11 -10 -7 -17 -11 -17
-8 0 6 -164 -38 -180 -48 -6 -4 -26 -9 -43 -12 -18 -3 -34 -8 -37 -12 -3 -3
-23 -12 -45 -19 -67 -23 -94 -35 -221 -99 -141 -71 -281 -156 -335 -205 -10
-10 -23 -18 -28 -18 -5 0 -11 -4 -13 -8 -1 -5 -24 -25 -50 -44 -26 -20 -44
-39 -41 -42 4 -3 1 -6 -6 -6 -23 0 -206 -196 -286 -306 -11 -15 -26 -33 -32
-40 -7 -7 -13 -15 -13 -18 0 -3 -16 -28 -35 -55 -19 -26 -35 -53 -35 -60 0 -6
-4 -11 -9 -11 -5 0 -14 -12 -20 -27 -6 -16 -24 -49 -39 -75 l-28 -48 -34 63
c-160 301 -429 593 -710 772 -41 26 -87 56 -102 66 -15 11 -34 19 -42 19 -8 0
-16 4 -18 9 -5 13 -268 135 -268 124 0 -3 -6 -1 -12 4 -18 14 -152 59 -250 83
-46 12 -90 24 -98 27 -8 3 -19 5 -24 4 -4 -1 -22 3 -40 8 -17 6 -47 13 -66 16
-19 3 -46 7 -60 10 -14 3 -43 7 -65 10 -22 2 -49 7 -60 9 -79 16 -495 29 -495
16z"/>
</g>
</svg>
