<svg width="380" height="353" viewBox="0 0 380 353" fill="none" xmlns="http://www.w3.org/2000/svg">
<path d="M280.176 0.5C294.03 0.5 307.018 3.09766 319.141 8.29297C331.263 13.4883 341.777 20.6628 350.684 29.8164C359.837 38.7227 367.012 49.237 372.207 61.3594C377.402 73.4818 380 86.4701 380 100.324C380 127.29 373.444 150.546 360.332 170.09C347.467 189.387 331.387 207.941 312.09 225.754C293.04 243.566 272.507 262.245 250.488 281.789C228.47 301.333 208.307 324.836 190 352.297C170.703 324.589 149.922 301.21 127.656 282.16C105.638 262.863 85.1042 244.432 66.0547 226.867C47.2526 209.302 31.543 190.871 18.9258 171.574C6.30859 152.03 0 128.28 0 100.324C0 86.4701 2.59766 73.4818 7.79297 61.3594C12.9883 49.237 20.0391 38.7227 28.9453 29.8164C38.099 20.6628 48.737 13.4883 60.8594 8.29297C72.9818 3.09766 85.9701 0.5 99.8242 0.5C110.957 0.5 121.595 2.85026 131.738 7.55078C141.882 12.2513 151.159 18.3125 159.57 25.7344L130.625 71.75L213.75 119.25L166.25 238L296.875 95.5L213.75 48L236.758 13.4883C243.19 9.52995 250.117 6.4375 257.539 4.21094C264.961 1.73698 272.507 0.5 280.176 0.5Z" fill="#E13D78"/>
</svg>
