<svg width="46" height="46" viewBox="0 0 46 46" fill="none" xmlns="http://www.w3.org/2000/svg">
<path d="M23 0.8125C19.8945 0.8125 16.9648 1.39844 14.2109 2.57031C11.4863 3.74219 9.09863 5.35352 7.04785 7.4043C5.02637 9.42578 3.42969 11.8135 2.25781 14.5674C1.08594 17.292 0.5 20.207 0.5 23.3125C0.5 26.418 1.08594 29.3477 2.25781 32.1016C3.42969 34.8262 5.02637 37.2139 7.04785 39.2646C9.09863 41.2861 11.4863 42.8828 14.2109 44.0547C16.9648 45.2266 19.8945 45.8125 23 45.8125C26.1055 45.8125 29.0205 45.2266 31.7451 44.0547C34.499 42.8828 36.8867 41.2861 38.9082 39.2646C40.959 37.2139 42.5703 34.8262 43.7422 32.1016C44.9141 29.3477 45.5 26.418 45.5 23.3125C45.5 20.207 44.9141 17.292 43.7422 14.5674C42.5703 11.8135 40.959 9.42578 38.9082 7.4043C36.8867 5.35352 34.499 3.74219 31.7451 2.57031C29.0205 1.39844 26.1055 0.8125 23 0.8125ZM34.0742 16.2373L30.3828 33.6396C30.2363 34.2549 29.9873 34.6357 29.6357 34.7822C29.2842 34.9287 28.8447 34.8701 28.3174 34.6064L22.6924 30.4316L20.0117 33.0684C19.8359 33.2148 19.6748 33.3467 19.5283 33.4639C19.3818 33.5811 19.1621 33.6396 18.8691 33.6396C18.5176 33.6396 18.3125 33.5664 18.2539 33.4199C18.2246 33.2441 18.1514 32.9951 18.0342 32.6729L16.1006 26.3447L10.5635 24.6309C9.94824 24.4551 9.64062 24.1914 9.64062 23.8398C9.66992 23.459 10.0654 23.1221 10.8271 22.8291L32.4922 14.4795C32.9902 14.2451 33.415 14.2891 33.7666 14.6113C34.1475 14.9336 34.25 15.4756 34.0742 16.2373Z" fill="white"/>
</svg>
