<svg width="380" height="353" fill="none" xmlns="http://www.w3.org/2000/svg"><path d="M280.176.5c13.854 0 26.842 2.598 38.965 7.793 12.122 5.195 22.636 12.37 31.543 21.523 9.153 8.907 16.328 19.421 21.523 31.543C377.402 73.482 380 86.47 380 100.324c0 26.966-6.556 50.222-19.668 69.766-12.865 19.297-28.945 37.851-48.242 55.664-19.05 17.812-39.583 36.491-61.602 56.035-22.018 19.544-42.181 43.047-60.488 70.508-19.297-27.708-40.078-51.087-62.344-70.137-22.018-19.297-42.552-37.728-61.601-55.293-18.802-17.565-34.512-35.996-47.13-55.293C6.31 152.03 0 128.28 0 100.324 0 86.47 2.598 73.482 7.793 61.359c5.195-12.122 12.246-22.636 21.152-31.543C38.1 20.663 48.737 13.488 60.86 8.293 72.982 3.098 85.97.5 99.824.5c11.133 0 21.771 2.35 31.914 7.05a114.805 114.805 0 0127.832 18.184L130.625 71.75l83.125 47.5L166.25 238 296.875 95.5 213.75 48l23.008-34.512c6.432-3.958 13.359-7.05 20.781-9.277C264.961 1.737 272.507.5 280.176.5z" fill="#E13D78"/></svg>