<svg xmlns="http://www.w3.org/2000/svg" xmlns:xlink="http://www.w3.org/1999/xlink"><symbol id="arrow" viewBox="0 0 52 24"><path d="M51.06 13.06a1.5 1.5 0 000-2.12l-9.545-9.547a1.5 1.5 0 10-2.122 2.122L47.88 12l-8.486 8.485a1.5 1.5 0 102.122 2.122l9.546-9.546zM0 13.5h50v-3H0v3z" fill="currentColor"/></symbol><symbol id="close" viewBox="0 0 329.269 329"><path d="M194.8 164.77L323.013 36.555c8.343-8.34 8.343-21.825 0-30.164-8.34-8.34-21.825-8.34-30.164 0L164.633 134.605 36.422 6.391c-8.344-8.34-21.824-8.34-30.164 0-8.344 8.34-8.344 21.824 0 30.164l128.21 128.215L6.259 292.984c-8.344 8.34-8.344 21.825 0 30.164a21.266 21.266 0 0015.082 6.25c5.46 0 10.922-2.09 15.082-6.25l128.21-128.214 128.216 128.214a21.273 21.273 0 0015.082 6.25c5.46 0 10.922-2.09 15.082-6.25 8.343-8.34 8.343-21.824 0-30.164zm0 0" fill="currentColor"/></symbol><symbol id="facebook" viewBox="0 0 24 46"><path d="M16.219 9.25h7.031V.812h-7.031a9.406 9.406 0 00-3.824.792 9.662 9.662 0 00-3.164 2.109 10.11 10.11 0 00-2.109 3.12 9.882 9.882 0 00-.747 3.823v4.219H.75v8.438h5.625v22.5h8.438v-22.5h7.03l1.407-8.438h-8.438v-4.219c0-.38.132-.703.396-.967.293-.293.63-.439 1.01-.439z" fill="currentColor"/></symbol><symbol id="telegram" viewBox="0 0 46 46"><path d="M23 .813c-3.105 0-6.035.585-8.79 1.757a22.724 22.724 0 00-7.162 4.834c-2.022 2.022-3.618 4.41-4.79 7.163C1.086 17.292.5 20.207.5 23.312c0 3.106.586 6.036 1.758 8.79 1.172 2.724 2.768 5.112 4.79 7.163 2.05 2.021 4.438 3.618 7.163 4.79 2.754 1.172 5.684 1.758 8.789 1.758 3.105 0 6.02-.586 8.745-1.758 2.754-1.172 5.142-2.769 7.163-4.79 2.051-2.051 3.662-4.439 4.834-7.163 1.172-2.754 1.758-5.684 1.758-8.79 0-3.105-.586-6.02-1.758-8.745-1.172-2.754-2.783-5.141-4.834-7.163-2.021-2.05-4.409-3.662-7.163-4.834C29.02 1.398 26.105.813 23 .813zm11.074 15.424L30.383 33.64c-.147.615-.396.996-.747 1.142-.352.147-.791.088-1.319-.176l-5.625-4.174-2.68 2.636a32.06 32.06 0 01-.484.396c-.146.117-.366.176-.659.176-.351 0-.556-.074-.615-.22a4.587 4.587 0 00-.22-.747l-1.933-6.328-5.537-1.714c-.616-.176-.923-.44-.923-.791.029-.381.424-.718 1.186-1.01l21.665-8.35c.498-.235.923-.19 1.275.131.38.323.483.865.307 1.626z" fill="currentColor"/></symbol><symbol id="vk" viewBox="0 0 46 46"><path d="M41.281.813H4.72c-1.172 0-2.168.41-2.989 1.23C.91 2.863.5 3.859.5 5.031v36.563c0 1.172.41 2.168 1.23 2.988.82.82 1.817 1.23 2.989 1.23H41.28c1.172 0 2.168-.41 2.989-1.23.82-.82 1.23-1.816 1.23-2.988V5.03c0-1.172-.41-2.168-1.23-2.988-.82-.82-1.817-1.23-2.989-1.23zm-4.35 31.508l-4.087.044h-.616c-.38 0-.864-.205-1.45-.615-.761-.527-1.494-1.274-2.197-2.241-.703-.996-1.348-1.392-1.933-1.187-.557.176-.88.689-.967 1.538l-.132 1.275-.044.307a.585.585 0 01-.22.484.853.853 0 01-.527.351l-.308.044h-1.845l-2.461-.351c-1.641-.235-3.355-1.275-5.142-3.12-.996-1.026-1.934-2.227-2.813-3.604a68.905 68.905 0 01-2.329-3.999 67.833 67.833 0 01-1.626-3.208l-.615-1.318-.088-.308c-.029-.205.015-.366.132-.483.117-.147.293-.235.527-.264l.352-.044 4.438-.044.22.088c.176.03.337.103.484.22a.8.8 0 01.263.351l.088.176.484 1.099c.322.732.717 1.508 1.186 2.329.908 1.582 1.611 2.607 2.11 3.076.497.469.908.615 1.23.44.44-.235.644-1.04.615-2.418v-2.065l-.044-.791c-.03-.557-.16-.996-.395-1.318a1.579 1.579 0 00-.747-.484c-.264-.117-.47-.175-.616-.175-.146-.03-.146-.147 0-.352a1.65 1.65 0 01.66-.527c.41-.206.937-.323 1.582-.352a53.13 53.13 0 012.285-.044c.615 0 1.054.03 1.318.088.293.03.571.073.835.132.762.176 1.113.659 1.055 1.45-.03.791-.044 2.036-.044 3.735v1.758c0 .645.19 1.099.571 1.362.176.088.498-.029.967-.351.469-.352 1.216-1.392 2.241-3.12.498-.85.908-1.67 1.23-2.461l.484-1.187.088-.175a1.21 1.21 0 01.351-.308c.118-.088.235-.117.352-.088h.22l4.658-.044h.703c.469 0 .762.161.879.483.117.323-.015.88-.395 1.67-.381.762-1.04 1.773-1.978 3.033-1.553 2.08-2.417 3.325-2.593 3.735-.146.41.425 1.216 1.714 2.417 1.23 1.142 2.036 2.007 2.417 2.593.38.556.586.864.615.923.498.85.425 1.377-.22 1.582l-.922.263z" fill="currentColor"/></symbol></svg>