<svg width="46" height="46" fill="none" xmlns="http://www.w3.org/2000/svg"><path d="M23 .813c-3.105 0-6.035.585-8.79 1.757a22.724 22.724 0 00-7.162 4.834c-2.022 2.022-3.618 4.41-4.79 7.163C1.086 17.292.5 20.207.5 23.312c0 3.106.586 6.036 1.758 8.79 1.172 2.724 2.768 5.112 4.79 7.163 2.05 2.021 4.438 3.618 7.163 4.79 2.754 1.172 5.684 1.758 8.789 1.758 3.105 0 6.02-.586 8.745-1.758 2.754-1.172 5.142-2.769 7.163-4.79 2.051-2.051 3.662-4.439 4.834-7.163 1.172-2.754 1.758-5.684 1.758-8.79 0-3.105-.586-6.02-1.758-8.745-1.172-2.754-2.783-5.141-4.834-7.163-2.021-2.05-4.409-3.662-7.163-4.834C29.02 1.398 26.105.813 23 .813zm11.074 15.424L30.383 33.64c-.147.615-.396.996-.747 1.142-.352.147-.791.088-1.319-.176l-5.625-4.174-2.68 2.636a32.06 32.06 0 01-.484.396c-.146.117-.366.176-.659.176-.351 0-.556-.074-.615-.22a4.587 4.587 0 00-.22-.747l-1.933-6.328-5.537-1.714c-.616-.176-.923-.44-.923-.791.029-.381.424-.718 1.186-1.01l21.665-8.35c.498-.235.923-.19 1.275.131.38.323.483.865.307 1.626z" fill="#fff"/></svg>