<svg width="46" height="46" fill="none" xmlns="http://www.w3.org/2000/svg"><path d="M41.281.813H4.72c-1.172 0-2.168.41-2.989 1.23C.91 2.863.5 3.859.5 5.031v36.563c0 1.172.41 2.168 1.23 2.988.82.82 1.817 1.23 2.989 1.23H41.28c1.172 0 2.168-.41 2.989-1.23.82-.82 1.23-1.816 1.23-2.988V5.03c0-1.172-.41-2.168-1.23-2.988-.82-.82-1.817-1.23-2.989-1.23zm-4.35 31.508l-4.087.044h-.616c-.38 0-.864-.205-1.45-.615-.761-.527-1.494-1.274-2.197-2.241-.703-.996-1.348-1.392-1.933-1.187-.557.176-.88.689-.967 1.538l-.132 1.275-.044.307a.585.585 0 01-.22.484.853.853 0 01-.527.351l-.308.044h-1.845l-2.461-.351c-1.641-.235-3.355-1.275-5.142-3.12-.996-1.026-1.934-2.227-2.813-3.604a68.905 68.905 0 01-2.329-3.999 67.833 67.833 0 01-1.626-3.208l-.615-1.318-.088-.308c-.029-.205.015-.366.132-.483.117-.147.293-.235.527-.264l.352-.044 4.438-.044.22.088c.176.03.337.103.484.22a.8.8 0 01.263.351l.088.176.484 1.099c.322.732.717 1.508 1.186 2.329.908 1.582 1.611 2.607 2.11 3.076.497.469.908.615 1.23.44.44-.235.644-1.04.615-2.418v-2.065l-.044-.791c-.03-.557-.16-.996-.395-1.318a1.579 1.579 0 00-.747-.484c-.264-.117-.47-.175-.616-.175-.146-.03-.146-.147 0-.352a1.65 1.65 0 01.66-.527c.41-.206.937-.323 1.582-.352a53.13 53.13 0 012.285-.044c.615 0 1.054.03 1.318.088.293.03.571.073.835.132.762.176 1.113.659 1.055 1.45-.03.791-.044 2.036-.044 3.735v1.758c0 .645.19 1.099.571 1.362.176.088.498-.029.967-.351.469-.352 1.216-1.392 2.241-3.12.498-.85.908-1.67 1.23-2.461l.484-1.187.088-.175a1.21 1.21 0 01.351-.308c.118-.088.235-.117.352-.088h.22l4.658-.044h.703c.469 0 .762.161.879.483.117.323-.015.88-.395 1.67-.381.762-1.04 1.773-1.978 3.033-1.553 2.08-2.417 3.325-2.593 3.735-.146.41.425 1.216 1.714 2.417 1.23 1.142 2.036 2.007 2.417 2.593.38.556.586.864.615.923.498.85.425 1.377-.22 1.582l-.922.263z" fill="#fff"/></svg>